# Blender v2.79 (sub 0) OBJ File: 'lamp.blend'
# www.blender.org
mtllib lamp.mtl
o Cone
v -0.192669 -0.179238 -1.444784
v -0.039909 -0.416116 -1.417023
v 0.106980 -0.643891 -1.334806
v 0.242354 -0.853810 -1.201294
v 0.361011 -1.037806 -1.021617
v 0.458390 -1.188807 -0.802679
v 0.530749 -1.301011 -0.552895
v 0.575307 -1.370105 -0.281863
v 0.590353 -1.393436 -0.000000
v 0.575307 -1.370106 0.281863
v 0.530749 -1.301011 0.552895
v 0.458390 -1.188807 0.802679
v 0.361011 -1.037806 1.021617
v 0.242354 -0.853810 1.201294
v 0.106980 -0.643891 1.334807
v -0.039909 -0.416116 1.417023
v -0.192670 -0.179237 1.444784
v -0.345430 0.057641 1.417023
v -0.492319 0.285416 1.334806
v -0.627694 0.495335 1.201294
v -0.746350 0.679331 1.021616
v -0.843729 0.830332 0.802678
v -0.916088 0.942535 0.552894
v 2.235727 1.386807 0.000000
v -0.960646 1.011630 0.281862
v -0.975692 1.034961 -0.000001
v -0.960646 1.011630 -0.281865
v -0.916087 0.942535 -0.552896
v -0.843728 0.830330 -0.802680
v -0.746349 0.679329 -1.021618
v -0.627692 0.495333 -1.201295
v -0.492318 0.285414 -1.334807
v -0.345428 0.057639 -1.417023
v -0.192669 -0.179238 -1.222771
v -0.063383 -0.379716 -1.199276
v 0.060935 -0.572490 -1.129693
v 0.175506 -0.750152 -1.016697
v 0.275930 -0.905874 -0.864630
v 0.358345 -1.033671 -0.679335
v 0.419585 -1.128633 -0.467934
v 0.457296 -1.187111 -0.238551
v 0.470030 -1.206856 -0.000000
v 0.457296 -1.187111 0.238551
v 0.419585 -1.128633 0.467934
v 0.358345 -1.033671 0.679335
v 0.275930 -0.905874 0.864630
v 0.175506 -0.750152 1.016697
v 0.060934 -0.572490 1.129694
v -0.063383 -0.379716 1.199276
v -0.192670 -0.179237 1.222771
v -0.321956 0.021241 1.199276
v -0.446274 0.214015 1.129693
v -0.560846 0.391677 1.016697
v -0.661269 0.547399 0.864629
v -0.743684 0.675196 0.679335
v -0.804924 0.770158 0.467933
v -0.842635 0.828636 0.238550
v -0.855368 0.848381 -0.000001
v -0.842635 0.828635 -0.238552
v -0.804923 0.770157 -0.467936
v -0.743683 0.675195 -0.679337
v -0.661268 0.547397 -0.864631
v -0.560845 0.391675 -1.016698
v -0.446272 0.214013 -1.129694
v -0.321954 0.021239 -1.199276
v -0.192669 -0.179238 -1.444784
v -0.039909 -0.416116 -1.417023
v 0.106980 -0.643891 -1.334806
v 0.242354 -0.853810 -1.201294
v 0.361011 -1.037806 -1.021617
v 0.458390 -1.188807 -0.802679
v 0.530749 -1.301011 -0.552895
v 0.575307 -1.370105 -0.281863
v 0.590353 -1.393436 -0.000000
v 0.575307 -1.370106 0.281863
v 0.530749 -1.301011 0.552895
v 0.458390 -1.188807 0.802679
v 0.361011 -1.037806 1.021617
v 0.242354 -0.853810 1.201294
v 0.106980 -0.643891 1.334807
v -0.039909 -0.416116 1.417023
v -0.192670 -0.179237 1.444784
v -0.345430 0.057641 1.417023
v -0.492319 0.285416 1.334806
v -0.627694 0.495335 1.201294
v -0.746350 0.679331 1.021616
v -0.843729 0.830332 0.802678
v -0.916088 0.942535 0.552894
v -0.960646 1.011630 0.281862
v -0.975692 1.034961 -0.000001
v -0.960646 1.011630 -0.281865
v -0.916087 0.942535 -0.552896
v -0.843728 0.830330 -0.802680
v -0.746349 0.679329 -1.021618
v -0.627692 0.495333 -1.201295
v -0.492318 0.285414 -1.334807
v -0.345428 0.057639 -1.417023
v 2.488108 1.549564 -0.285266
v 2.518269 1.502794 -0.279785
v 2.547272 1.457820 -0.263551
v 2.574001 1.416373 -0.237190
v 2.597429 1.380044 -0.201714
v 2.616656 1.350230 -0.158485
v 2.630943 1.328075 -0.109167
v 2.639741 1.314433 -0.055653
v 2.642712 1.309826 -0.000000
v 2.639741 1.314433 0.055652
v 2.630943 1.328075 0.109166
v 2.616656 1.350230 0.158485
v 2.597429 1.380044 0.201713
v 2.574001 1.416373 0.237190
v 2.547272 1.457821 0.263551
v 2.518269 1.502794 0.279784
v 2.488108 1.549564 0.285266
v 2.457946 1.596335 0.279784
v 2.428943 1.641308 0.263551
v 2.402214 1.682755 0.237190
v 2.378786 1.719084 0.201713
v 2.359559 1.748899 0.158485
v 2.345272 1.771053 0.109166
v 2.336474 1.784695 0.055652
v 2.333504 1.789302 -0.000001
v 2.336474 1.784695 -0.055653
v 2.345272 1.771053 -0.109167
v 2.359559 1.748899 -0.158486
v 2.378786 1.719084 -0.201714
v 2.402215 1.682755 -0.237190
v 2.428943 1.641307 -0.263552
v 2.457946 1.596334 -0.279785
v 1.833212 0.843837 -0.296449
v 6.509272 -0.958864 -0.296449
v 1.812408 0.789874 -0.290753
v 6.488468 -1.012827 -0.290753
v 1.792404 0.737985 -0.273883
v 6.468463 -1.064716 -0.273883
v 1.773968 0.690163 -0.246489
v 6.450027 -1.112538 -0.246489
v 1.757808 0.648248 -0.209621
v 6.433868 -1.154454 -0.209621
v 1.744547 0.613848 -0.164698
v 6.420607 -1.188853 -0.164698
v 1.734693 0.588287 -0.113446
v 6.410753 -1.214414 -0.113446
v 1.728624 0.572546 -0.057834
v 6.404685 -1.230155 -0.057834
v 1.726575 0.567232 -0.000000
v 6.402636 -1.235470 -0.000000
v 1.728624 0.572546 0.057834
v 6.404685 -1.230155 0.057834
v 1.734693 0.588287 0.113446
v 6.410753 -1.214414 0.113446
v 1.744547 0.613848 0.164698
v 6.420607 -1.188853 0.164698
v 1.757808 0.648248 0.209621
v 6.433868 -1.154454 0.209621
v 1.773968 0.690163 0.246489
v 6.450027 -1.112538 0.246489
v 1.792404 0.737985 0.273883
v 6.468463 -1.064716 0.273883
v 1.812408 0.789874 0.290753
v 6.488468 -1.012827 0.290753
v 1.833212 0.843837 0.296449
v 6.509272 -0.958864 0.296449
v 1.854015 0.897801 0.290753
v 6.530076 -0.904901 0.290753
v 1.874020 0.949690 0.273883
v 6.550080 -0.853011 0.273883
v 1.892456 0.997512 0.246488
v 6.568515 -0.805189 0.246488
v 1.908615 1.039428 0.209621
v 6.584675 -0.763274 0.209621
v 1.921876 1.073827 0.164698
v 6.597936 -0.728874 0.164698
v 1.931731 1.099388 0.113446
v 6.607790 -0.703313 0.113446
v 1.937799 1.115129 0.057834
v 6.613859 -0.687573 0.057834
v 1.939848 1.120443 -0.000000
v 6.615907 -0.682258 -0.000000
v 1.937799 1.115129 -0.057835
v 6.613859 -0.687573 -0.057835
v 1.931731 1.099388 -0.113447
v 6.607790 -0.703313 -0.113447
v 1.921876 1.073827 -0.164699
v 6.597936 -0.728875 -0.164699
v 1.908615 1.039427 -0.209622
v 6.584674 -0.763274 -0.209622
v 1.892455 0.997511 -0.246489
v 6.568515 -0.805190 -0.246489
v 1.874019 0.949690 -0.273884
v 6.550079 -0.853012 -0.273884
v 1.854015 0.897800 -0.290753
v 6.530075 -0.904901 -0.290753
vt 0.738647 0.271338
vt 0.837212 0.000000
vt 0.768103 0.287473
vt 0.795016 0.304604
vt 0.818351 0.322075
vt 0.837212 0.339212
vt 0.784693 1.000000
vt 0.935703 0.699635
vt 0.809023 0.993973
vt 0.837463 0.989822
vt 0.868921 0.987706
vt 0.902187 0.987706
vt 0.935983 0.989822
vt 0.969010 0.993973
vt 1.000000 1.000000
vt 0.593772 0.002316
vt 0.593772 0.399269
vt 0.567373 0.000000
vt 0.537884 0.001603
vt 0.506440 0.007064
vt 0.474248 0.016173
vt 0.442546 0.028579
vt 0.412552 0.043807
vt 0.385419 0.061270
vt 0.362189 0.080297
vt 0.343755 0.100158
vt 0.784693 0.699635
vt 0.848990 0.399269
vt 0.815683 0.693608
vt 0.848710 0.689456
vt 0.882506 0.687340
vt 0.915772 0.687340
vt 0.947230 0.689456
vt 0.975670 0.693608
vt 1.000000 0.699634
vt 0.593772 0.224715
vt 0.618566 0.228109
vt 0.646562 0.234782
vt 0.676686 0.244476
vt 0.707779 0.256819
vt 0.000000 0.000000
vt 0.000000 0.000000
vt 0.000000 0.000000
vt 0.000000 0.000000
vt 0.000000 0.412173
vt 0.018426 0.401308
vt 0.173334 0.781852
vt 0.169035 0.784387
vt 0.000000 0.000000
vt 0.000000 0.000000
vt 0.000000 0.000000
vt 0.000000 0.000000
vt 0.000000 0.000000
vt 0.000000 0.000000
vt 0.000000 0.000000
vt 0.000000 0.000000
vt 0.000000 0.000000
vt 0.000000 0.000000
vt 0.000000 0.000000
vt 0.000000 0.000000
vt 0.000000 0.000000
vt 0.000000 0.000000
vt 0.000000 0.000000
vt 0.000000 0.000000
vt 0.000000 0.000000
vt 0.000000 0.000000
vt 0.000000 0.000000
vt 0.000000 0.000000
vt 0.000000 0.000000
vt 0.000000 0.000000
vt 0.000000 0.000000
vt 0.000000 0.000000
vt 0.000000 0.000000
vt 0.000000 0.000000
vt 0.000000 0.000000
vt 0.000000 0.000000
vt 0.000000 0.000000
vt 0.000000 0.000000
vt 0.000000 0.000000
vt 0.000000 0.000000
vt 0.000000 0.000000
vt 0.000000 0.000000
vt 0.000000 0.000000
vt 0.000000 0.000000
vt 0.000000 0.000000
vt 0.000000 0.000000
vt 0.000000 0.000000
vt 0.000000 0.000000
vt 0.000000 0.000000
vt 0.000000 0.000000
vt 0.000000 0.000000
vt 0.000000 0.000000
vt 0.000000 0.000000
vt 0.000000 0.000000
vt 0.000000 0.000000
vt 0.000000 0.000000
vt 0.000000 0.000000
vt 0.000000 0.000000
vt 0.000000 0.000000
vt 0.000000 0.000000
vt 0.000000 0.000000
vt 0.000000 0.000000
vt 0.000000 0.000000
vt 0.000000 0.000000
vt 0.000000 0.000000
vt 0.000000 0.000000
vt 0.000000 0.000000
vt 0.000000 0.000000
vt 0.026412 0.164451
vt 0.026412 0.194361
vt 0.000000 0.197076
vt 0.000000 0.161736
vt 0.032002 0.135117
vt 0.006605 0.127075
vt 0.042967 0.107484
vt 0.019562 0.094425
vt 0.058887 0.082615
vt 0.038371 0.065041
vt 0.079148 0.061466
vt 0.062312 0.040052
vt 0.102973 0.044849
vt 0.090463 0.020418
vt 0.129447 0.033403
vt 0.121743 0.006895
vt 0.157550 0.027568
vt 0.154949 0.000000
vt 0.186204 0.027568
vt 0.188806 0.000000
vt 0.214308 0.033403
vt 0.222012 0.006894
vt 0.240781 0.044849
vt 0.253292 0.020418
vt 0.264606 0.061466
vt 0.281443 0.040052
vt 0.284868 0.082615
vt 0.305383 0.065041
vt 0.300788 0.107484
vt 0.324193 0.094425
vt 0.311753 0.135116
vt 0.337150 0.127075
vt 0.317343 0.164451
vt 0.343755 0.161736
vt 0.317343 0.194361
vt 0.343755 0.197076
vt 0.311753 0.223695
vt 0.337150 0.231737
vt 0.300788 0.251328
vt 0.324193 0.264386
vt 0.284868 0.276197
vt 0.305383 0.293770
vt 0.264607 0.297346
vt 0.281443 0.318760
vt 0.240781 0.313963
vt 0.253292 0.338393
vt 0.214308 0.325408
vt 0.222012 0.351917
vt 0.186204 0.331243
vt 0.188806 0.358812
vt 0.157550 0.331243
vt 0.154949 0.358812
vt 0.129447 0.325408
vt 0.121743 0.351917
vt 0.102973 0.313962
vt 0.090463 0.338393
vt 0.079148 0.297346
vt 0.062312 0.318759
vt 0.058887 0.276197
vt 0.038371 0.293770
vt 0.042967 0.251328
vt 0.019562 0.264386
vt 0.032002 0.223695
vt 0.006605 0.231736
vt 0.288342 0.390746
vt 0.288342 0.397723
vt 0.287038 0.404567
vt 0.284480 0.411014
vt 0.280766 0.416815
vt 0.276039 0.421749
vt 0.270480 0.425626
vt 0.264304 0.428296
vt 0.257748 0.429657
vt 0.251063 0.429657
vt 0.244507 0.428296
vt 0.238331 0.425626
vt 0.232772 0.421749
vt 0.228045 0.416815
vt 0.224332 0.411014
vt 0.221773 0.404567
vt 0.220469 0.397723
vt 0.220469 0.390746
vt 0.221773 0.383902
vt 0.224332 0.377456
vt 0.228045 0.371654
vt 0.232772 0.366720
vt 0.238331 0.362843
vt 0.244507 0.360173
vt 0.251063 0.358812
vt 0.257748 0.358812
vt 0.264305 0.360173
vt 0.270481 0.362843
vt 0.276039 0.366720
vt 0.280766 0.371654
vt 0.284480 0.377456
vt 0.287038 0.383902
vt 0.464475 0.407260
vt 0.492264 0.402537
vt 0.547436 0.813158
vt 0.540953 0.814259
vt 0.040616 0.390959
vt 0.178510 0.779438
vt 0.518817 0.399839
vt 0.553631 0.812528
vt 0.065717 0.381525
vt 0.184366 0.777237
vt 0.891789 0.295319
vt 0.863685 0.298085
vt 0.896217 0.000645
vt 0.902774 0.000000
vt 0.543115 0.399269
vt 0.559299 0.812395
vt 0.092765 0.373368
vt 0.190677 0.775334
vt 0.837212 0.303509
vt 0.890041 0.001911
vt 0.564224 0.400849
vt 0.564224 0.812764
vt 0.120721 0.366803
vt 0.197198 0.773802
vt 0.784693 0.823264
vt 0.763584 0.824844
vt 0.779769 0.411718
vt 0.784693 0.411349
vt 0.975020 0.303509
vt 0.948547 0.298085
vt 0.916015 0.000645
vt 0.922191 0.001911
vt 0.148509 0.362080
vt 0.203681 0.772700
vt 0.739286 0.824274
vt 0.774100 0.411585
vt 0.920443 0.295319
vt 0.909458 0.000000
vt 0.175062 0.359382
vt 0.209876 0.772071
vt 0.712733 0.821576
vt 0.767905 0.410956
vt 0.199360 0.358812
vt 0.215545 0.771938
vt 0.684945 0.816853
vt 0.761422 0.409854
vt 0.220469 0.360392
vt 0.220469 0.772307
vt 0.656989 0.810288
vt 0.754901 0.408322
vt 0.343755 0.452631
vt 0.362181 0.441765
vt 0.517088 0.822309
vt 0.512790 0.824844
vt 0.629941 0.802131
vt 0.748590 0.406419
vt 0.384371 0.431416
vt 0.522265 0.819895
vt 0.604840 0.792697
vt 0.742734 0.404218
vt 0.409472 0.421982
vt 0.528121 0.817694
vt 0.582650 0.782348
vt 0.737558 0.401804
vt 0.436520 0.413826
vt 0.534431 0.815791
vt 0.564224 0.771483
vt 0.733259 0.399269
vt 0.595482 0.000000
vt 0.595482 0.334407
vt 0.554686 0.334407
vt 0.554685 0.000000
vt 0.514673 0.334407
vt 0.514673 0.000000
vt 0.476982 0.334407
vt 0.476982 0.000000
vt 0.443061 0.334407
vt 0.443061 0.000000
vt 0.414213 0.334407
vt 0.414213 0.000000
vt 0.264046 0.665593
vt 0.264046 1.000000
vt 0.230125 1.000000
vt 0.230125 0.665593
vt 0.192434 1.000000
vt 0.192434 0.665593
vt 0.152421 1.000000
vt 0.152421 0.665593
vt 0.111625 1.000000
vt 0.111625 0.665593
vt 0.071612 1.000000
vt 0.071612 0.665593
vt 0.033921 1.000000
vt 0.033921 0.665593
vt 0.000000 1.000000
vt 0.000000 0.665593
vt 0.707107 0.668814
vt 0.707107 0.334407
vt 0.741028 0.334407
vt 0.741028 0.668814
vt 0.778719 0.334407
vt 0.778719 0.668814
vt 0.818731 0.334407
vt 0.818731 0.668814
vt 0.859528 0.334407
vt 0.859528 0.668814
vt 0.899540 0.334407
vt 0.899540 0.668814
vt 0.937231 0.334407
vt 0.937231 0.668814
vt 0.971152 0.334407
vt 0.971152 0.668814
vt 1.000000 0.334407
vt 1.000000 0.668814
vt 0.414213 0.668814
vt 0.414213 0.334407
vt 0.448134 0.334407
vt 0.448135 0.668814
vt 0.485826 0.334407
vt 0.485826 0.668814
vt 0.525838 0.334407
vt 0.525838 0.668814
vt 0.566635 0.334407
vt 0.566635 0.668814
vt 0.606647 0.334407
vt 0.606647 0.668814
vt 0.644338 0.334407
vt 0.644338 0.668814
vt 0.678259 0.334407
vt 0.678259 0.668814
vt 0.707107 0.334407
vt 0.707107 0.668814
vt 0.735954 0.000000
vt 0.735954 0.334407
vt 0.707106 0.334407
vt 0.707106 0.000000
vt 0.673185 0.334407
vt 0.673185 0.000000
vt 0.186708 0.665593
vt 0.146696 0.659199
vt 0.109005 0.646655
vt 0.075084 0.628445
vt 0.046237 0.605268
vt 0.023571 0.578014
vt 0.007959 0.547732
vt 0.000000 0.515584
vt 0.000000 0.482806
vt 0.007959 0.450658
vt 0.023571 0.420376
vt 0.046236 0.393122
vt 0.075084 0.369945
vt 0.109005 0.351735
vt 0.146696 0.339191
vt 0.186708 0.332797
vt 0.227505 0.332797
vt 0.267517 0.339191
vt 0.305209 0.351735
vt 0.339130 0.369945
vt 0.367977 0.393122
vt 0.390642 0.420376
vt 0.406254 0.450658
vt 0.414213 0.482806
vt 0.414213 0.515584
vt 0.406254 0.547731
vt 0.390642 0.578014
vt 0.367977 0.605268
vt 0.339130 0.628445
vt 0.305209 0.646655
vt 0.267518 0.659199
vt 0.227505 0.665593
vt 0.635494 0.334407
vt 0.635494 0.000000
vt 0.000000 0.182787
vt 0.000000 0.150010
vt 0.007959 0.117862
vt 0.023571 0.087579
vt 0.046236 0.060326
vt 0.075084 0.037148
vt 0.109005 0.018938
vt 0.146696 0.006395
vt 0.186708 0.000000
vt 0.227505 0.000000
vt 0.267517 0.006395
vt 0.305208 0.018938
vt 0.339129 0.037148
vt 0.367977 0.060326
vt 0.390642 0.087579
vt 0.406254 0.117862
vt 0.414213 0.150009
vt 0.414213 0.182787
vt 0.406254 0.214935
vt 0.390642 0.245217
vt 0.367977 0.272471
vt 0.339129 0.295648
vt 0.305208 0.313859
vt 0.267517 0.326402
vt 0.227505 0.332797
vt 0.186708 0.332797
vt 0.146696 0.326402
vt 0.109005 0.313858
vt 0.075084 0.295648
vt 0.046236 0.272471
vt 0.023571 0.245217
vt 0.007959 0.214935
vn 0.4219 0.1677 -0.8910
vn 0.5152 0.0230 -0.8567
vn 0.6031 -0.1132 -0.7896
vn 0.6822 -0.2359 -0.6921
vn 0.7495 -0.3402 -0.5680
vn 0.8023 -0.4221 -0.4220
vn 0.8387 -0.4786 -0.2599
vn 0.8573 -0.5073 -0.0878
vn 0.8573 -0.5073 0.0878
vn 0.8387 -0.4786 0.2599
vn 0.8023 -0.4221 0.4220
vn 0.7495 -0.3402 0.5680
vn 0.6822 -0.2359 0.6921
vn 0.6031 -0.1132 0.7896
vn 0.5152 0.0230 0.8567
vn 0.4219 0.1677 0.8910
vn 0.3268 0.3152 0.8910
vn 0.2335 0.4598 0.8567
vn 0.1457 0.5961 0.7896
vn 0.0666 0.7188 0.6921
vn -0.0007 0.8231 0.5680
vn -0.0535 0.9050 0.4220
vn -0.0899 0.9614 0.2599
vn -0.1085 0.9902 0.0878
vn -0.1085 0.9902 -0.0878
vn -0.0899 0.9614 -0.2599
vn -0.0535 0.9050 -0.4220
vn -0.0007 0.8231 -0.5680
vn 0.0666 0.7188 -0.6921
vn 0.1457 0.5961 -0.7896
vn 0.2335 0.4598 -0.8567
vn 0.3268 0.3152 -0.8910
vn 0.0000 0.0000 1.0000
vn -0.6380 0.4714 -0.6089
vn -0.8404 -0.5420 0.0000
vn 0.2619 -0.9240 0.2786
vn -0.5659 0.3596 -0.7419
vn 0.2228 -0.8635 0.4524
vn -0.4811 0.2281 -0.8465
vn -0.2869 -0.0731 0.9552
vn 0.1662 -0.7757 0.6089
vn -0.3869 0.0820 -0.9185
vn -0.3869 0.0820 0.9185
vn 0.0941 -0.6638 0.7419
vn -0.2869 -0.0731 -0.9552
vn -0.4811 0.2281 0.8465
vn 0.0093 -0.5324 0.8465
vn -0.1849 -0.2312 -0.9552
vn -0.5659 0.3596 0.7419
vn -0.0849 -0.3863 0.9185
vn -0.0849 -0.3863 -0.9185
vn -0.6380 0.4714 0.6089
vn -0.1849 -0.2312 0.9552
vn 0.0093 -0.5324 -0.8465
vn -0.6947 0.5592 0.4524
vn 0.0941 -0.6638 -0.7419
vn -0.7337 0.6197 0.2786
vn 0.1662 -0.7757 -0.6089
vn -0.7536 0.6506 0.0941
vn 0.2228 -0.8635 -0.4524
vn -0.7536 0.6506 -0.0941
vn 0.2619 -0.9240 -0.2786
vn -0.7337 0.6197 -0.2786
vn 0.2817 -0.9549 -0.0941
vn -0.6947 0.5592 -0.4524
vn 0.2817 -0.9549 0.0941
vn -0.0353 -0.0915 -0.9952
vn -0.1044 -0.2709 -0.9569
vn -0.1696 -0.4398 -0.8819
vn -0.2282 -0.5919 -0.7730
vn -0.2781 -0.7213 -0.6344
vn -0.3172 -0.8229 -0.4714
vn -0.3442 -0.8929 -0.2903
vn -0.3580 -0.9286 -0.0980
vn -0.3580 -0.9286 0.0980
vn -0.3442 -0.8929 0.2903
vn -0.3172 -0.8229 0.4714
vn -0.2781 -0.7213 0.6344
vn -0.2282 -0.5919 0.7730
vn -0.1696 -0.4398 0.8819
vn -0.1044 -0.2709 0.9569
vn -0.0353 -0.0915 0.9952
vn 0.0353 0.0915 0.9952
vn 0.1044 0.2709 0.9569
vn 0.1696 0.4398 0.8819
vn 0.2282 0.5919 0.7730
vn 0.2781 0.7213 0.6344
vn 0.3172 0.8229 0.4714
vn 0.3442 0.8929 0.2903
vn 0.3580 0.9286 0.0980
vn 0.3580 0.9286 -0.0980
vn 0.3442 0.8929 -0.2903
vn 0.3172 0.8229 -0.4714
vn 0.2781 0.7213 -0.6344
vn 0.2282 0.5919 -0.7730
vn 0.1696 0.4398 -0.8819
vn 0.9331 -0.3597 -0.0000
vn 0.1044 0.2709 -0.9569
vn 0.0353 0.0915 -0.9952
vn -0.9331 0.3597 -0.0000
usemtl None
s off
f 1/1/1 24/2/1 2/3/1
f 2/3/2 24/2/2 3/4/2
f 3/4/3 24/2/3 4/5/3
f 4/5/4 24/2/4 5/6/4
f 5/7/5 24/8/5 6/9/5
f 6/9/6 24/8/6 7/10/6
f 7/10/7 24/8/7 8/11/7
f 8/11/8 24/8/8 9/12/8
f 9/12/9 24/8/9 10/13/9
f 10/13/10 24/8/10 11/14/10
f 11/14/11 24/8/11 12/15/11
f 12/16/12 24/17/12 13/18/12
f 13/18/13 24/17/13 14/19/13
f 14/19/14 24/17/14 15/20/14
f 15/20/15 24/17/15 16/21/15
f 16/21/16 24/17/16 17/22/16
f 17/22/17 24/17/17 18/23/17
f 18/23/18 24/17/18 19/24/18
f 19/24/19 24/17/19 20/25/19
f 20/25/20 24/17/20 21/26/20
f 21/27/21 24/28/21 22/29/21
f 22/29/22 24/28/22 23/30/22
f 23/30/23 24/28/23 25/31/23
f 25/31/24 24/28/24 26/32/24
f 26/32/25 24/28/25 27/33/25
f 27/33/26 24/28/26 28/34/26
f 28/34/27 24/28/27 29/35/27
f 29/36/28 24/2/28 30/37/28
f 30/37/29 24/2/29 31/38/29
f 31/38/30 24/2/30 32/39/30
f 32/39/31 24/2/31 33/40/31
f 33/40/32 24/2/32 1/1/32
f 3/41/33 4/42/33 69/43/33 68/44/33
f 45/45/34 46/46/34 110/47/34 109/48/34
f 10/49/33 11/50/33 76/51/33 75/52/33
f 23/53/33 25/54/33 89/55/33 88/56/33
f 17/57/33 18/58/33 83/59/33 82/60/33
f 31/61/33 32/62/33 96/63/33 95/64/33
f 4/42/33 5/65/33 70/66/33 69/43/33
f 11/50/33 12/67/33 77/68/33 76/51/33
f 25/54/33 26/69/33 90/70/33 89/55/33
f 18/58/33 19/71/33 84/72/33 83/59/33
f 32/62/33 33/73/33 97/74/33 96/63/33
f 5/65/33 6/75/33 71/76/33 70/66/33
f 33/73/33 1/77/33 66/78/33 97/74/33
f 12/67/33 13/79/33 78/80/33 77/68/33
f 26/69/33 27/81/33 91/82/33 90/70/33
f 19/71/33 20/83/33 85/84/33 84/72/33
f 6/75/33 7/85/33 72/86/33 71/76/33
f 13/79/33 14/87/33 79/88/33 78/80/33
f 27/81/33 28/89/33 92/90/33 91/82/33
f 20/83/33 21/91/33 86/92/33 85/84/33
f 7/85/33 8/93/33 73/94/33 72/86/33
f 1/77/33 2/95/33 67/96/33 66/78/33
f 14/87/33 15/97/33 80/98/33 79/88/33
f 28/89/33 29/99/33 93/100/33 92/90/33
f 21/91/33 22/101/33 87/102/33 86/92/33
f 8/93/33 9/103/33 74/104/33 73/94/33
f 15/97/33 16/105/33 81/106/33 80/98/33
f 29/99/33 30/107/33 94/108/33 93/100/33
f 22/101/33 23/53/33 88/56/33 87/102/33
f 2/95/33 3/41/33 68/44/33 67/96/33
f 9/103/33 10/49/33 75/52/33 74/104/33
f 16/105/33 17/57/33 82/60/33 81/106/33
f 30/107/33 31/61/33 95/64/33 94/108/33
f 35/109/35 34/110/35 66/111/35 67/112/35
f 36/113/35 35/109/35 67/112/35 68/114/35
f 37/115/35 36/113/35 68/114/35 69/116/35
f 38/117/35 37/115/35 69/116/35 70/118/35
f 39/119/35 38/117/35 70/118/35 71/120/35
f 40/121/35 39/119/35 71/120/35 72/122/35
f 41/123/35 40/121/35 72/122/35 73/124/35
f 42/125/35 41/123/35 73/124/35 74/126/35
f 43/127/35 42/125/35 74/126/35 75/128/35
f 44/129/35 43/127/35 75/128/35 76/130/35
f 45/131/35 44/129/35 76/130/35 77/132/35
f 46/133/35 45/131/35 77/132/35 78/134/35
f 47/135/35 46/133/35 78/134/35 79/136/35
f 48/137/35 47/135/35 79/136/35 80/138/35
f 49/139/35 48/137/35 80/138/35 81/140/35
f 50/141/35 49/139/35 81/140/35 82/142/35
f 51/143/35 50/141/35 82/142/35 83/144/35
f 52/145/35 51/143/35 83/144/35 84/146/35
f 53/147/35 52/145/35 84/146/35 85/148/35
f 54/149/35 53/147/35 85/148/35 86/150/35
f 55/151/35 54/149/35 86/150/35 87/152/35
f 56/153/35 55/151/35 87/152/35 88/154/35
f 57/155/35 56/153/35 88/154/35 89/156/35
f 58/157/35 57/155/35 89/156/35 90/158/35
f 59/159/35 58/157/35 90/158/35 91/160/35
f 60/161/35 59/159/35 91/160/35 92/162/35
f 61/163/35 60/161/35 92/162/35 93/164/35
f 62/165/35 61/163/35 93/164/35 94/166/35
f 63/167/35 62/165/35 94/166/35 95/168/35
f 64/169/35 63/167/35 95/168/35 96/170/35
f 65/171/35 64/169/35 96/170/35 97/172/35
f 34/110/35 65/171/35 97/172/35 66/111/35
f 98/173/35 99/174/35 100/175/35 101/176/35 102/177/35 103/178/35 104/179/35 105/180/35 106/181/35 107/182/35 108/183/35 109/184/35 110/185/35 111/186/35 112/187/35 113/188/35 114/189/35 115/190/35 116/191/35 117/192/35 118/193/35 119/194/35 120/195/35 121/196/35 122/197/35 123/198/35 124/199/35 125/200/35 126/201/35 127/202/35 128/203/35 129/204/35
f 59/205/36 60/206/36 124/207/36 123/208/36
f 46/46/37 47/209/37 111/210/37 110/47/37
f 60/206/38 61/211/38 125/212/38 124/207/38
f 47/209/39 48/213/39 112/214/39 111/210/39
f 34/215/40 35/216/40 99/217/40 98/218/40
f 61/211/41 62/219/41 126/220/41 125/212/41
f 48/213/42 49/221/42 113/222/42 112/214/42
f 35/216/43 36/223/43 100/224/43 99/217/43
f 62/219/44 63/225/44 127/226/44 126/220/44
f 49/221/45 50/227/45 114/228/45 113/222/45
f 36/229/46 37/230/46 101/231/46 100/232/46
f 63/233/47 64/234/47 128/235/47 127/236/47
f 50/227/48 51/237/48 115/238/48 114/228/48
f 37/230/49 38/239/49 102/240/49 101/231/49
f 64/234/50 65/241/50 129/242/50 128/235/50
f 51/237/51 52/243/51 116/244/51 115/238/51
f 38/239/52 39/245/52 103/246/52 102/240/52
f 65/241/53 34/215/53 98/218/53 129/242/53
f 52/243/54 53/247/54 117/248/54 116/244/54
f 39/245/55 40/249/55 104/250/55 103/246/55
f 53/247/56 54/251/56 118/252/56 117/248/56
f 40/249/57 41/253/57 105/254/57 104/250/57
f 54/255/58 55/256/58 119/257/58 118/258/58
f 41/253/59 42/259/59 106/260/59 105/254/59
f 55/256/60 56/261/60 120/262/60 119/257/60
f 42/259/61 43/263/61 107/264/61 106/260/61
f 56/261/62 57/265/62 121/266/62 120/262/62
f 43/263/63 44/267/63 108/268/63 107/264/63
f 57/265/64 58/269/64 122/270/64 121/266/64
f 44/267/65 45/271/65 109/272/65 108/268/65
f 58/269/66 59/205/66 123/208/66 122/270/66
f 130/273/67 131/274/67 133/275/67 132/276/67
f 132/276/68 133/275/68 135/277/68 134/278/68
f 134/278/69 135/277/69 137/279/69 136/280/69
f 136/280/70 137/279/70 139/281/70 138/282/70
f 138/282/71 139/281/71 141/283/71 140/284/71
f 140/285/72 141/286/72 143/287/72 142/288/72
f 142/288/73 143/287/73 145/289/73 144/290/73
f 144/290/74 145/289/74 147/291/74 146/292/74
f 146/292/75 147/291/75 149/293/75 148/294/75
f 148/294/76 149/293/76 151/295/76 150/296/76
f 150/296/77 151/295/77 153/297/77 152/298/77
f 152/298/78 153/297/78 155/299/78 154/300/78
f 154/301/79 155/302/79 157/303/79 156/304/79
f 156/304/80 157/303/80 159/305/80 158/306/80
f 158/306/81 159/305/81 161/307/81 160/308/81
f 160/308/82 161/307/82 163/309/82 162/310/82
f 162/310/83 163/309/83 165/311/83 164/312/83
f 164/312/84 165/311/84 167/313/84 166/314/84
f 166/314/85 167/313/85 169/315/85 168/316/85
f 168/316/86 169/315/86 171/317/86 170/318/86
f 170/319/87 171/320/87 173/321/87 172/322/87
f 172/322/88 173/321/88 175/323/88 174/324/88
f 174/324/89 175/323/89 177/325/89 176/326/89
f 176/326/90 177/325/90 179/327/90 178/328/90
f 178/328/91 179/327/91 181/329/91 180/330/91
f 180/330/92 181/329/92 183/331/92 182/332/92
f 182/332/93 183/331/93 185/333/93 184/334/93
f 184/334/94 185/333/94 187/335/94 186/336/94
f 186/337/95 187/338/95 189/339/95 188/340/95
f 188/340/96 189/339/96 191/341/96 190/342/96
f 133/343/97 131/344/97 193/345/97 191/346/97 189/347/97 187/348/97 185/349/97 183/350/97 181/351/97 179/352/97 177/353/97 175/354/97 173/355/97 171/356/97 169/357/97 167/358/97 165/359/97 163/360/97 161/361/97 159/362/97 157/363/97 155/364/97 153/365/97 151/366/97 149/367/97 147/368/97 145/369/97 143/370/97 141/371/97 139/372/97 137/373/97 135/374/97
f 190/342/98 191/341/98 193/375/98 192/376/98
f 192/376/99 193/375/99 131/274/99 130/273/99
f 130/377/100 132/378/100 134/379/100 136/380/100 138/381/100 140/382/100 142/383/100 144/384/100 146/385/100 148/386/100 150/387/100 152/388/100 154/389/100 156/390/100 158/391/100 160/392/100 162/393/100 164/394/100 166/395/100 168/396/100 170/397/100 172/398/100 174/399/100 176/400/100 178/401/100 180/402/100 182/403/100 184/404/100 186/405/100 188/406/100 190/407/100 192/408/100
