# Blender v2.79 (sub 0) OBJ File: 'lamp.blend'
# www.blender.org
mtllib lamp.mtl
o Sphere
v 0.000000 0.707107 -0.707107
v 0.000000 0.382683 -0.923880
v 0.000000 -0.382684 -0.923880
v 0.000000 -0.923880 -0.382683
v 0.146447 0.923880 -0.353553
v 0.270598 0.707107 -0.653281
v 0.353553 0.382683 -0.853553
v 0.382683 -0.000000 -0.923880
v 0.353553 -0.382684 -0.853553
v 0.270598 -0.707107 -0.653281
v 0.146447 -0.923880 -0.353553
v 0.270598 0.923880 -0.270598
v 0.500000 0.707107 -0.500000
v 0.653281 0.382683 -0.653281
v 0.707107 -0.000000 -0.707107
v 0.653281 -0.382684 -0.653281
v 0.500000 -0.707107 -0.500000
v 0.270598 -0.923880 -0.270598
v 0.353553 0.923880 -0.146447
v 0.653281 0.707107 -0.270598
v 0.853553 0.382683 -0.353553
v 0.923879 -0.000000 -0.382683
v 0.853553 -0.382684 -0.353553
v 0.653281 -0.707107 -0.270598
v 0.353553 -0.923880 -0.146447
v 0.382683 0.923880 -0.000000
v 0.707107 0.707107 -0.000000
v 0.923879 0.382683 -0.000000
v 1.000000 -0.000000 -0.000000
v 0.923879 -0.382684 -0.000000
v 0.707107 -0.707107 -0.000000
v 0.382683 -0.923880 -0.000000
v 0.353553 0.923880 0.146446
v 0.653281 0.707107 0.270598
v 0.853553 0.382683 0.353553
v 0.923879 -0.000000 0.382683
v 0.853553 -0.382684 0.353553
v 0.653281 -0.707107 0.270598
v 0.353553 -0.923880 0.146446
v 0.270598 0.923880 0.270598
v 0.500000 0.707107 0.500000
v 0.653281 0.382683 0.653281
v 0.707106 -0.000000 0.707107
v 0.653281 -0.382684 0.653281
v 0.500000 -0.707107 0.500000
v 0.270598 -0.923880 0.270598
v 0.146446 0.923880 0.353553
v 0.270598 0.707107 0.653281
v 0.353553 0.382683 0.853553
v 0.382683 -0.000000 0.923879
v 0.353553 -0.382684 0.853553
v 0.270598 -0.707107 0.653281
v 0.146446 -0.923880 0.353553
v -0.000000 0.923880 0.382683
v -0.000000 0.707107 0.707106
v -0.000000 0.382683 0.923879
v -0.000000 -0.000000 1.000000
v -0.000000 -0.382684 0.923879
v -0.000000 -0.707107 0.707106
v -0.000000 -0.923880 0.382683
v -0.146447 0.923880 0.353553
v -0.270598 0.707107 0.653281
v -0.353554 0.382683 0.853553
v -0.382684 -0.000000 0.923879
v -0.353554 -0.382684 0.853553
v -0.270598 -0.707107 0.653281
v -0.146447 -0.923880 0.353553
v -0.270598 0.923880 0.270598
v -0.500000 0.707107 0.499999
v -0.653282 0.382683 0.653281
v -0.707107 -0.000000 0.707106
v -0.653282 -0.382684 0.653281
v -0.500000 -0.707107 0.499999
v -0.270598 -0.923880 0.270598
v -0.353553 0.923880 0.146446
v -0.653281 0.707107 0.270597
v -0.853553 0.382683 0.353553
v -0.923879 -0.000000 0.382683
v -0.853553 -0.382684 0.353553
v -0.653281 -0.707107 0.270597
v -0.353553 -0.923880 0.146446
v -0.382683 0.923880 -0.000000
v -0.707106 0.707107 -0.000000
v -0.923879 0.382683 -0.000001
v -1.000000 -0.000000 -0.000001
v -0.923879 -0.382684 -0.000001
v -0.707106 -0.707107 -0.000000
v -0.382683 -0.923880 -0.000000
v -0.353553 0.923880 -0.146447
v -0.653281 0.707107 -0.270598
v -0.853553 0.382683 -0.353554
v -0.923879 -0.000000 -0.382684
v -0.853553 -0.382684 -0.353554
v -0.653281 -0.707107 -0.270598
v -0.353553 -0.923880 -0.146447
v -0.270598 0.923880 -0.270598
v -0.499999 0.707107 -0.500000
v -0.653281 0.382683 -0.653282
v -0.707106 -0.000000 -0.707107
v -0.653281 -0.382684 -0.653282
v -0.499999 -0.707107 -0.500000
v -0.270598 -0.923880 -0.270598
v -0.146446 0.923880 -0.353553
v -0.270598 0.707107 -0.653281
v -0.353553 0.382683 -0.853553
v -0.382683 -0.000000 -0.923880
v -0.353553 -0.382684 -0.853553
v -0.270598 -0.707107 -0.653281
v -0.146446 -0.923880 -0.353553
v -0.000000 1.000000 -0.000000
v 0.000000 0.923880 -0.382683
v 0.000001 -0.000000 -1.000000
v 0.000000 -0.707107 -0.707106
v 0.000000 -1.000000 -0.000000
vt 0.684067 0.365956
vt 0.746031 0.319853
vt 0.770284 0.351950
vt 0.728881 0.425264
vt 0.767599 0.700086
vt 0.705635 0.636603
vt 0.750449 0.577296
vt 0.791852 0.667989
vt 0.069523 0.412342
vt 0.152680 0.425310
vt 0.165483 0.509909
vt 0.081351 0.490502
vt 0.241711 0.412342
vt 0.323063 0.375414
vt 0.332116 0.435235
vt 0.253540 0.490502
vt 0.819123 0.258272
vt 0.840691 0.767769
vt 0.664232 0.586987
vt 0.722784 0.509498
vt 0.312508 0.610655
vt 0.318876 0.722089
vt 0.236415 0.708409
vt 0.236324 0.598016
vt 0.305594 0.840316
vt 0.274686 0.947338
vt 0.216377 0.937665
vt 0.229410 0.827678
vt 0.801973 0.369321
vt 0.823541 0.650618
vt 0.287460 0.522979
vt 0.229151 0.513306
vt 0.787434 0.457361
vt 0.809002 0.545199
vt 0.857840 0.650618
vt 0.153584 0.593578
vt 0.165825 0.509909
vt 0.146671 0.823240
vt 0.146858 0.703605
vt 0.836272 0.369321
vt 0.850811 0.457361
vt 0.872379 0.545199
vt 0.153051 0.934268
vt 0.069972 0.827678
vt 0.063840 0.708409
vt 0.867961 0.351950
vt 0.909364 0.425264
vt 0.930932 0.577296
vt 0.889529 0.667989
vt 0.076886 0.598016
vt 0.094348 0.937665
vt 0.107123 0.513306
vt 0.975747 0.636603
vt 0.913782 0.700085
vt 0.579638 0.494826
vt 0.491069 0.509498
vt 0.480821 0.424281
vt 0.570170 0.416095
vt 0.049206 0.947338
vt 0.010992 0.840316
vt 0.892214 0.319853
vt 0.659813 0.443815
vt 0.652567 0.383557
vt 0.000000 0.722089
vt 0.954179 0.365956
vt 0.398121 0.406867
vt 0.334660 0.366505
vt 0.332116 0.288145
vt 0.394796 0.304485
vt 0.905340 0.277916
vt 0.926908 0.742022
vt 0.566846 0.313714
vt 0.650022 0.305198
vt 0.477222 0.313464
vt 0.978432 0.288467
vt 1.000000 0.714092
vt 0.926908 0.787414
vt 0.570170 0.203269
vt 0.652567 0.220666
vt 0.398121 0.194040
vt 0.480821 0.193919
vt 0.905340 0.232524
vt 0.978432 0.204594
vt 1.000000 0.797965
vt 0.334660 0.203614
vt 0.892214 0.190588
vt 0.954179 0.127105
vt 0.975747 0.875454
vt 0.913782 0.829351
vt 0.491069 0.083845
vt 0.579638 0.101574
vt 0.341907 0.125780
vt 0.407589 0.092345
vt 0.659813 0.142832
vt 0.930932 0.934761
vt 0.889529 0.861448
vt 0.506406 0.000000
vt 0.593809 0.024111
vt 0.995582 0.077489
vt 0.909364 0.067798
vt 0.937029 0.000000
vt 0.867961 0.158491
vt 0.332116 0.564765
vt 0.410692 0.509498
vt 0.422520 0.587658
vt 0.341169 0.624586
vt 0.421759 0.014883
vt 0.836272 0.141120
vt 0.857840 0.878818
vt 0.428922 0.689778
vt 0.346069 0.702746
vt 0.511552 0.574690
vt 0.594709 0.587658
vt 0.601111 0.689778
vt 0.518481 0.685225
vt 0.850811 0.035701
vt 0.872379 0.966858
vt 0.659332 0.624586
vt 0.664232 0.702746
vt 0.428922 0.800313
vt 0.346069 0.787345
vt 0.601111 0.800313
vt 0.518481 0.804866
vt 0.801973 0.141120
vt 0.787434 0.035701
vt 0.809002 0.966858
vt 0.823541 0.878818
vt 0.664232 0.787345
vt 0.750449 0.934761
vt 0.791852 0.861448
vt 0.511552 0.915401
vt 0.422520 0.902433
vt 0.659332 0.865505
vt 0.594709 0.902433
vt 0.770284 0.158491
vt 0.341169 0.865505
vt 0.728881 0.067798
vt 0.498749 1.000000
vt 0.410692 0.980593
vt 0.253540 0.019407
vt 0.332116 0.074674
vt 0.323063 0.134495
vt 0.241711 0.097567
vt 0.746031 0.190588
vt 0.767599 0.829351
vt 0.332116 0.925326
vt 0.165483 0.000000
vt 0.152680 0.084599
vt 0.684067 0.127105
vt 0.705635 0.875454
vt 0.754473 0.787414
vt 0.004900 0.134495
vt 0.069523 0.097567
vt 0.063121 0.199687
vt 0.000000 0.212655
vt 0.235310 0.199687
vt 0.145751 0.195134
vt 0.732905 0.232524
vt 0.659813 0.204594
vt 0.681382 0.797965
vt 0.318163 0.212655
vt 0.235310 0.310222
vt 0.145751 0.314775
vt 0.732905 0.277916
vt 0.659813 0.288467
vt 0.681382 0.714092
vt 0.754473 0.742022
vt 0.063121 0.310222
vt 0.318163 0.297254
vt 0.000000 0.297254
vt 0.004900 0.375414
vn 0.1098 0.8264 -0.5522
vn 0.1098 -0.8264 -0.5522
vn 0.1915 -0.1915 -0.9626
vn 0.1632 0.5481 -0.8203
vn 0.0388 0.9800 -0.1949
vn 0.0388 -0.9800 -0.1949
vn 0.1632 -0.5481 -0.8203
vn 0.1915 0.1915 -0.9626
vn 0.5453 -0.1915 -0.8161
vn 0.4647 0.5481 -0.6954
vn 0.1104 0.9800 -0.1653
vn 0.1104 -0.9800 -0.1653
vn 0.4647 -0.5481 -0.6954
vn 0.5453 0.1915 -0.8161
vn 0.3128 0.8264 -0.4681
vn 0.3128 -0.8264 -0.4681
vn 0.1653 -0.9800 -0.1104
vn 0.6954 -0.5481 -0.4647
vn 0.8161 0.1915 -0.5453
vn 0.4681 0.8264 -0.3128
vn 0.4681 -0.8264 -0.3128
vn 0.8161 -0.1915 -0.5453
vn 0.6954 0.5481 -0.4647
vn 0.1653 0.9800 -0.1104
vn 0.9626 0.1915 -0.1915
vn 0.5522 0.8264 -0.1098
vn 0.5522 -0.8264 -0.1098
vn 0.9626 -0.1915 -0.1915
vn 0.8203 0.5481 -0.1632
vn 0.1949 0.9800 -0.0388
vn 0.1949 -0.9800 -0.0388
vn 0.8203 -0.5481 -0.1632
vn 0.5522 -0.8264 0.1098
vn 0.9626 -0.1915 0.1915
vn 0.8203 0.5481 0.1632
vn 0.1949 0.9800 0.0388
vn 0.1949 -0.9800 0.0388
vn 0.8203 -0.5481 0.1632
vn 0.9626 0.1915 0.1915
vn 0.5522 0.8264 0.1098
vn 0.6954 0.5481 0.4647
vn 0.1653 0.9800 0.1104
vn 0.1653 -0.9800 0.1104
vn 0.6954 -0.5481 0.4647
vn 0.8161 0.1915 0.5453
vn 0.4681 0.8264 0.3128
vn 0.4681 -0.8264 0.3128
vn 0.8161 -0.1915 0.5453
vn 0.1104 -0.9800 0.1653
vn 0.4647 -0.5481 0.6954
vn 0.5453 0.1915 0.8161
vn 0.3128 0.8264 0.4681
vn 0.3128 -0.8264 0.4681
vn 0.5453 -0.1915 0.8161
vn 0.4647 0.5481 0.6954
vn 0.1104 0.9800 0.1653
vn 0.1098 0.8264 0.5522
vn 0.1098 -0.8264 0.5522
vn 0.1915 -0.1915 0.9626
vn 0.1632 0.5481 0.8203
vn 0.0388 0.9800 0.1949
vn 0.0388 -0.9800 0.1949
vn 0.1632 -0.5481 0.8203
vn 0.1915 0.1915 0.9626
vn -0.1098 -0.8264 0.5522
vn -0.1915 -0.1915 0.9626
vn -0.1632 0.5481 0.8203
vn -0.0388 0.9800 0.1949
vn -0.0388 -0.9800 0.1949
vn -0.1632 -0.5481 0.8203
vn -0.1915 0.1915 0.9626
vn -0.1098 0.8264 0.5522
vn -0.1104 0.9800 0.1653
vn -0.1104 -0.9800 0.1653
vn -0.4647 -0.5481 0.6954
vn -0.5453 0.1915 0.8161
vn -0.3128 0.8264 0.4681
vn -0.3128 -0.8264 0.4681
vn -0.5453 -0.1915 0.8161
vn -0.4647 0.5481 0.6954
vn -0.6954 -0.5481 0.4647
vn -0.8161 0.1915 0.5453
vn -0.4681 0.8264 0.3128
vn -0.4681 -0.8264 0.3128
vn -0.8161 -0.1915 0.5453
vn -0.6954 0.5481 0.4647
vn -0.1653 0.9800 0.1104
vn -0.1653 -0.9800 0.1104
vn -0.5522 -0.8264 0.1098
vn -0.9626 -0.1915 0.1915
vn -0.8203 0.5481 0.1632
vn -0.1949 0.9800 0.0388
vn -0.1949 -0.9800 0.0388
vn -0.8203 -0.5481 0.1632
vn -0.9626 0.1915 0.1915
vn -0.5522 0.8264 0.1098
vn -0.9626 -0.1915 -0.1915
vn -0.8203 0.5481 -0.1632
vn -0.1949 0.9800 -0.0388
vn -0.1949 -0.9800 -0.0388
vn -0.8203 -0.5481 -0.1632
vn -0.9626 0.1915 -0.1915
vn -0.5522 0.8264 -0.1098
vn -0.5522 -0.8264 -0.1098
vn -0.1653 -0.9800 -0.1104
vn -0.6954 -0.5481 -0.4647
vn -0.8161 0.1915 -0.5453
vn -0.4681 0.8264 -0.3128
vn -0.4681 -0.8264 -0.3128
vn -0.8161 -0.1915 -0.5453
vn -0.6954 0.5481 -0.4647
vn -0.1653 0.9800 -0.1104
vn -0.5453 0.1915 -0.8161
vn -0.3128 0.8264 -0.4681
vn -0.3128 -0.8264 -0.4681
vn -0.5453 -0.1915 -0.8161
vn -0.4647 0.5481 -0.6954
vn -0.1104 0.9800 -0.1653
vn -0.1104 -0.9800 -0.1653
vn -0.4647 -0.5481 -0.6954
vn -0.1098 -0.8264 -0.5522
vn -0.1915 -0.1915 -0.9626
vn -0.1632 0.5481 -0.8203
vn -0.0388 0.9800 -0.1949
vn -0.0388 -0.9800 -0.1949
vn -0.1632 -0.5481 -0.8203
vn -0.1915 0.1915 -0.9626
vn -0.1098 0.8264 -0.5522
usemtl None
s off
f 1/1/1 111/2/1 5/3/1 6/4/1
f 4/5/2 113/6/2 10/7/2 11/8/2
f 3/9/3 112/10/3 8/11/3 9/12/3
f 2/13/4 1/14/4 6/15/4 7/16/4
f 111/2/5 110/17/5 5/3/5
f 114/18/6 4/5/6 11/8/6
f 113/6/7 3/19/7 9/20/7 10/7/7
f 112/10/8 2/13/8 7/16/8 8/11/8
f 9/21/9 8/22/9 15/23/9 16/24/9
f 7/25/10 6/26/10 13/27/10 14/28/10
f 5/3/11 110/17/11 12/29/11
f 114/18/12 11/8/12 18/30/12
f 10/31/13 9/21/13 16/24/13 17/32/13
f 8/22/14 7/25/14 14/28/14 15/23/14
f 6/4/15 5/3/15 12/29/15 13/33/15
f 11/8/16 10/7/16 17/34/16 18/30/16
f 114/18/17 18/30/17 25/35/17
f 17/32/18 16/24/18 23/36/18 24/37/18
f 15/23/19 14/28/19 21/38/19 22/39/19
f 13/33/20 12/29/20 19/40/20 20/41/20
f 18/30/21 17/34/21 24/42/21 25/35/21
f 16/24/22 15/23/22 22/39/22 23/36/22
f 14/28/23 13/27/23 20/43/23 21/38/23
f 12/29/24 110/17/24 19/40/24
f 22/39/25 21/38/25 28/44/25 29/45/25
f 20/41/26 19/40/26 26/46/26 27/47/26
f 25/35/27 24/42/27 31/48/27 32/49/27
f 23/36/28 22/39/28 29/45/28 30/50/28
f 21/38/29 20/43/29 27/51/29 28/44/29
f 19/40/30 110/17/30 26/46/30
f 114/18/31 25/35/31 32/49/31
f 24/37/32 23/36/32 30/50/32 31/52/32
f 32/49/33 31/48/33 38/53/33 39/54/33
f 30/55/34 29/56/34 36/57/34 37/58/34
f 28/44/35 27/51/35 34/59/35 35/60/35
f 26/46/36 110/17/36 33/61/36
f 114/18/37 32/49/37 39/54/37
f 31/62/38 30/55/38 37/58/38 38/63/38
f 29/45/39 28/44/39 35/60/39 36/64/39
f 27/47/40 26/46/40 33/61/40 34/65/40
f 35/66/41 34/67/41 41/68/41 42/69/41
f 33/61/42 110/17/42 40/70/42
f 114/18/43 39/54/43 46/71/43
f 38/63/44 37/58/44 44/72/44 45/73/44
f 36/57/45 35/66/45 42/69/45 43/74/45
f 34/65/46 33/61/46 40/70/46 41/75/46
f 39/54/47 38/53/47 45/76/47 46/71/47
f 37/58/48 36/57/48 43/74/48 44/72/48
f 114/18/49 46/71/49 53/77/49
f 45/73/50 44/72/50 51/78/50 52/79/50
f 43/74/51 42/69/51 49/80/51 50/81/51
f 41/75/52 40/70/52 47/82/52 48/83/52
f 46/71/53 45/76/53 52/84/53 53/77/53
f 44/72/54 43/74/54 50/81/54 51/78/54
f 42/69/55 41/68/55 48/85/55 49/80/55
f 40/70/56 110/17/56 47/82/56
f 48/83/57 47/82/57 54/86/57 55/87/57
f 53/77/58 52/84/58 59/88/58 60/89/58
f 51/78/59 50/81/59 57/90/59 58/91/59
f 49/80/60 48/85/60 55/92/60 56/93/60
f 47/82/61 110/17/61 54/86/61
f 114/18/62 53/77/62 60/89/62
f 52/79/63 51/78/63 58/91/63 59/94/63
f 50/81/64 49/80/64 56/93/64 57/90/64
f 60/89/65 59/88/65 66/95/65 67/96/65
f 58/91/66 57/90/66 64/97/66 65/98/66
f 56/99/67 55/87/67 62/100/67 63/101/67
f 54/86/68 110/17/68 61/102/68
f 114/18/69 60/89/69 67/96/69
f 59/103/70 58/104/70 65/105/70 66/106/70
f 57/90/71 56/93/71 63/107/71 64/97/71
f 55/87/72 54/86/72 61/102/72 62/100/72
f 61/102/73 110/17/73 68/108/73
f 114/18/74 67/96/74 74/109/74
f 66/106/75 65/105/75 72/110/75 73/111/75
f 64/112/76 63/113/76 70/114/76 71/115/76
f 62/100/77 61/102/77 68/108/77 69/116/77
f 67/96/78 66/95/78 73/117/78 74/109/78
f 65/105/79 64/112/79 71/115/79 72/110/79
f 63/113/80 62/118/80 69/119/80 70/114/80
f 73/111/81 72/110/81 79/120/81 80/121/81
f 71/115/82 70/114/82 77/122/82 78/123/82
f 69/116/83 68/108/83 75/124/83 76/125/83
f 74/109/84 73/117/84 80/126/84 81/127/84
f 72/110/85 71/115/85 78/123/85 79/120/85
f 70/114/86 69/119/86 76/128/86 77/122/86
f 68/108/87 110/17/87 75/124/87
f 114/18/88 74/109/88 81/127/88
f 81/127/89 80/126/89 87/129/89 88/130/89
f 79/120/90 78/123/90 85/131/90 86/132/90
f 77/122/91 76/128/91 83/133/91 84/134/91
f 75/124/92 110/17/92 82/135/92
f 114/18/93 81/127/93 88/130/93
f 80/121/94 79/120/94 86/132/94 87/136/94
f 78/123/95 77/122/95 84/134/95 85/131/95
f 76/125/96 75/124/96 82/135/96 83/137/96
f 86/132/97 85/131/97 92/138/97 93/139/97
f 84/140/98 83/141/98 90/142/98 91/143/98
f 82/135/99 110/17/99 89/144/99
f 114/18/100 88/130/100 95/145/100
f 87/136/101 86/132/101 93/139/101 94/146/101
f 85/147/102 84/140/102 91/143/102 92/148/102
f 83/137/103 82/135/103 89/144/103 90/149/103
f 88/130/104 87/129/104 94/150/104 95/145/104
f 114/18/105 95/145/105 102/151/105
f 94/152/106 93/153/106 100/154/106 101/155/106
f 92/148/107 91/143/107 98/156/107 99/157/107
f 90/149/108 89/144/108 96/158/108 97/159/108
f 95/145/109 94/150/109 101/160/109 102/151/109
f 93/153/110 92/148/110 99/157/110 100/154/110
f 91/143/111 90/142/111 97/161/111 98/156/111
f 89/144/112 110/17/112 96/158/112
f 99/157/113 98/156/113 105/162/113 106/163/113
f 97/159/114 96/158/114 103/164/114 104/165/114
f 102/151/115 101/160/115 108/166/115 109/167/115
f 100/154/116 99/157/116 106/163/116 107/168/116
f 98/156/117 97/161/117 104/169/117 105/162/117
f 96/158/118 110/17/118 103/164/118
f 114/18/119 102/151/119 109/167/119
f 101/155/120 100/154/120 107/168/120 108/170/120
f 109/167/121 108/166/121 113/6/121 4/5/121
f 107/168/122 106/163/122 112/10/122 3/9/122
f 105/162/123 104/169/123 1/14/123 2/13/123
f 103/164/124 110/17/124 111/2/124
f 114/18/125 109/167/125 4/5/125
f 108/170/126 107/168/126 3/9/126 113/171/126
f 106/163/127 105/162/127 2/13/127 112/10/127
f 104/165/128 103/164/128 111/2/128 1/1/128
